<svg xmlns="http://www.w3.org/2000/svg" width="141" height="45.034" viewBox="0 0 141 45.034">
    <defs>
        <style>
            .cls-1{fill:#fff}.cls-2{fill:#49b3e6}.cls-3{fill:#f397b9}.cls-4{fill:#ffc441}
        </style>
    </defs>
    <g id="Group_75" transform="translate(-88 -1123.966)">
        <g id="Group_30" transform="translate(110.12 1123.966)">
            <path id="Path_1748" d="M-12.048 1165.02a3.452 3.452 0 0 0-2.017-.7 2.835 2.835 0 0 0-1 .176 7.036 7.036 0 0 0-4.583-1.7 8.434 8.434 0 0 0-2.478.393 7.928 7.928 0 0 0-5.261 9.654 7.744 7.744 0 0 0 7.334 5.787 6.392 6.392 0 0 0 1.094-.091 2.924 2.924 0 0 0 2.534 1.508h.044a2.7 2.7 0 0 0 2.7-2.245l.824-3.143q.865-3.255 1.741-6.534a2.692 2.692 0 0 0-.932-3.105zm-8.018 7.827a1.854 1.854 0 0 1-1.329-.55 2.14 2.14 0 0 1-.6-1.538 2.255 2.255 0 0 1 2.178-2.222 2.173 2.173 0 0 1 1.964 2.115 2.2 2.2 0 0 1-2.213 2.194z" class="cls-1" transform="translate(109.275 -1154.747)"/>
            <path id="Path_1749" d="M-297.375 1141.518a6.679 6.679 0 0 0-4.61-3.046 7.4 7.4 0 0 0-4.016.342 2.713 2.713 0 0 0-2.211-1 2.7 2.7 0 0 0-.372.018 2.719 2.719 0 0 0-2.438 2.953c-.063 1.065-.121 2.129-.184 3.2a2.737 2.737 0 0 0-1.287-.621 3.029 3.029 0 0 0 .095-.526 3.951 3.951 0 0 0-1.354-3.11 6.49 6.49 0 0 0-4.781-2.032 8.443 8.443 0 0 0-2.192.305 7.9 7.9 0 0 0-5.424 5.612 7.784 7.784 0 0 0-2.28-2.724 7.189 7.189 0 0 0-4.433-1.5c.093-.351.175-.687.274-1.026q.3-1.119.616-2.206c.317-1.122.635-2.245.943-3.411a2.981 2.981 0 0 0-2.02-3.532 3.093 3.093 0 0 0-.885-.135 2.827 2.827 0 0 0-2.631 1.906 8.616 8.616 0 0 0-.321.975q-.237.856-.47 1.714-.294 1.076-.593 2.15l-2.517 8.975a2.549 2.549 0 0 0-1.818-1.417l-.056-.014a3.448 3.448 0 0 0-.686-2.981 6.313 6.313 0 0 0-3.648-2.455 7.638 7.638 0 0 0-1.783-.223 7.85 7.85 0 0 0-7.639 6.208 8.969 8.969 0 0 0-1.375-2.052 6.7 6.7 0 0 0 1.655-9.331 6.694 6.694 0 0 0-2.123-1.954 12.653 12.653 0 0 0-6.171-1.734c-.175-.014-.351-.02-.526-.02a7.2 7.2 0 0 0-1.763.219l-.054.016c-2.571.754-2.906 3.034-3.127 4.551-.351 2.434-.731 4.863-1.1 7.294l-.628 4.091-.188 1.191c-.2 1.294-.414 2.631-.552 3.977a2.964 2.964 0 0 0 2.532 3.535 26.473 26.473 0 0 0 5.757.795 13.721 13.721 0 0 0 2.63-.246 7.213 7.213 0 0 0 4.784-3.412 7.53 7.53 0 0 0 .819-1.966 8.321 8.321 0 0 0 1.11 1.836 7.78 7.78 0 0 0 5.508 2.911q.282.018.558.018a7.8 7.8 0 0 0 6.254-2.971 2.707 2.707 0 0 0 .286 1.861 2.746 2.746 0 0 0 1.754 1.289 3.086 3.086 0 0 0 .8.111 2.642 2.642 0 0 0 1.548-.482 8.958 8.958 0 0 0 4.875 1.708 7.076 7.076 0 0 0 4.175-1.483 7.945 7.945 0 0 0 3.093-4.451 8.159 8.159 0 0 0 7.292 4.414c.161 0 .323 0 .484-.014a8.082 8.082 0 0 0 6.278-4c-.017.473-.026.929-.025 1.389a2.757 2.757 0 0 0 2.564 2.88c.1.01.2.014.3.016a2.876 2.876 0 0 0 2.829-2.325 9.253 9.253 0 0 0 .176-1.512c.035-.505.056-1.015.077-1.524a20.21 20.21 0 0 1 .261-2.962 1.754 1.754 0 0 1 1.754-1.484 2.035 2.035 0 0 1 1.259.454c.13.1.254.214.381.323s.261.23.394.338a2.85 2.85 0 0 0 1.817.7 2.7 2.7 0 0 0 1.82-.74 2.737 2.737 0 0 0 .529-3.653zm-63.833 6.034c-.128.467-.426.978-1.652 1.245-.314.066-.656.117-1.052.175l-.367.054-.461-.091c-.459-.093-.926-.188-1.389-.3.207-1.643.438-3.3.689-4.933a7.038 7.038 0 0 1 3.553 1.489 2.028 2.028 0 0 1 .68 2.357zm.936-10.752a1.24 1.24 0 0 1-.989 1.053 17.585 17.585 0 0 1-1.913.386l-.633-.074c-.288-.033-.556-.065-.821-.091.175-1.082.351-2.229.514-3.491a5.726 5.726 0 0 1 3.157 1.022c.791.589.731.94.687 1.2zm12.593 11.2l.212-.144q.473-.323.952-.638a1.947 1.947 0 0 1-1.162.782zm14.538 1.442a2.143 2.143 0 0 1-1.98-2.231 2.279 2.279 0 0 1 2.171-2.081 1.893 1.893 0 0 1 1.37.564 2.22 2.22 0 0 1-.069 3.139 2.219 2.219 0 0 1-1.493.615zm15.36-1.463l.058-.039 1.029-.673a2.183 2.183 0 0 1-1.087.7z" class="cls-1" transform="translate(372.079 -1128.818)"/>
            <path id="Path_1750" d="M-48.788 1155.393a3.19 3.19 0 0 0 .288-.265 3.042 3.042 0 0 0 .835-2.188v-.056a3.174 3.174 0 0 0-3.156-2.957h-.06a3 3 0 0 0-2.953 3.033v.117a3.094 3.094 0 0 0 .526 1.745 2.937 2.937 0 0 0-.877 1.964c-.225 2.154-.431 4.311-.64 6.466l-.242 2.483-.119 1.456.154.021a2.654 2.654 0 0 0 2.618 2.3c.119.009.23.014.337.014 1.052 0 2.355-.46 2.622-2.655.24-1.948.461-3.877.679-5.826q.2-1.768.407-3.541a3.111 3.111 0 0 0-.419-2.111z" class="cls-1" transform="translate(130.271 -1144.925)"/>
            <path id="Path_1351" d="M-359.355 1144.343a7.942 7.942 0 0 1 2.9 3.961 5.792 5.792 0 0 1-4.367 7.18 18.9 18.9 0 0 1-7.777-.54c-1.1-.244-1.468-.747-1.351-1.9.176-1.707.47-3.4.728-5.1.577-3.8 1.179-7.592 1.734-11.4.209-1.426.412-2.836 2.052-3.316a5.661 5.661 0 0 1 1.808-.159 11.27 11.27 0 0 1 5.491 1.519 5.2 5.2 0 0 1 1.914 7.094 5.2 5.2 0 0 1-1.944 1.932zm-4.363 8.958c.7-.112 1.242-.175 1.78-.293a3.311 3.311 0 0 0 2.794-2.322 3.536 3.536 0 0 0-1.172-3.934 8.96 8.96 0 0 0-5.222-1.929.83.83 0 0 0-.654.459q-.526 3.311-.935 6.643a.9.9 0 0 0 .482.714c1 .276 2.029.459 2.927.649zm1.166-10.806a19.241 19.241 0 0 0 2.311-.448 2.767 2.767 0 0 0 2.066-2.253 2.641 2.641 0 0 0-1.284-2.674 7.556 7.556 0 0 0-4.521-1.34c-.616-.012-.894.214-.973.828-.195 1.5-.409 3-.661 4.488-.116.7.016 1.119.807 1.171.666.042 1.329.137 2.254.237z" class="cls-2" transform="translate(370.468 -1132.051)"/>
            <path id="Path_1352" d="M-240.976 1155.005c-.414.691-.921 1.124-1.734.9a1.175 1.175 0 0 1-.968-1.35 1.163 1.163 0 0 1 .068-.245q2.031-7.266 4.07-14.522c.361-1.288.7-2.58 1.066-3.867a7.162 7.162 0 0 1 .27-.828 1.289 1.289 0 0 1 1.578-.9.228.228 0 0 1 .079.027 1.453 1.453 0 0 1 .98 1.725c-.493 1.855-1.035 3.7-1.541 5.547-.277 1-.526 2-.817 3.143a6.493 6.493 0 0 1 5.517.995 6.334 6.334 0 0 1 2.236 3.156 6.445 6.445 0 0 1-2.42 7.2c-2.584 1.855-4.868 1.602-8.384-.981zm8.486-4.133a3.539 3.539 0 0 0-3.372-3.7h-.125a3.792 3.792 0 0 0-3.7 3.6 3.667 3.667 0 0 0 3.487 3.76 3.742 3.742 0 0 0 3.707-3.653z" class="cls-3" transform="translate(274.113 -1132.891)"/>
            <path id="Path_1353" d="M-17.252 1179.58a2.541 2.541 0 0 0-.61.06c-2.567.91-6.353-.668-7.4-4.432a6.458 6.458 0 0 1 4.239-7.795 5.734 5.734 0 0 1 5.92 1.259c.31.286.526.414.966.146a1.618 1.618 0 0 1 1.882.207c.565.4.486.9.332 1.475-.865 3.227-1.7 6.462-2.555 9.694-.175.644-.509 1.124-1.252 1.112a1.454 1.454 0 0 1-1.435-1.355c-.022-.109-.054-.218-.087-.371zm-2.155-2.445a3.72 3.72 0 0 0 3.725-3.713 3.67 3.67 0 0 0-3.52-3.634 3.781 3.781 0 0 0-3.658 3.716 3.508 3.508 0 0 0 3.367 3.63z" class="cls-4" transform="translate(107.6 -1158.021)"/>
            <path id="Path_1354" d="M-299.364 1179.693a3.6 3.6 0 0 0 5.076.371 3.6 3.6 0 0 0 1.027-1.488 7.129 7.129 0 0 0 .324-1.173 1.484 1.484 0 0 1 1.7-1.228.526.526 0 0 1 .118.023c.771.175 1 .633.808 1.624a6.562 6.562 0 0 1-6.978 5.635 6.593 6.593 0 0 1-5.872-7.5 6.313 6.313 0 0 1 7.189-5.294h.013c.153.023.3.051.453.086a4.8 4.8 0 0 1 2.771 1.868 1.765 1.765 0 0 1-.265 2.7c-1.2.956-2.522 1.771-3.795 2.63-.833.587-1.671 1.144-2.569 1.746zm-1.133-2.392l5.291-3.385c-.877-.914-1.827-1-3.148-.388a3.606 3.606 0 0 0-2.146 3.772z" class="cls-2" transform="translate(319.54 -1160.692)"/>
            <path id="Path_1355" d="M-173.381 1179.607a3.576 3.576 0 0 0 6.041-1.091 9.228 9.228 0 0 0 .351-1.261 1.48 1.48 0 0 1 1.734-1.172h.033a1.01 1.01 0 0 1 .933 1.08v.085a6.715 6.715 0 0 1-5.963 6.1 6.585 6.585 0 0 1-6.96-5.366 6.458 6.458 0 0 1 4.495-7.279 5.3 5.3 0 0 1 5.494 1.326c1.306 1.328 1.25 2.5-.267 3.576-1.684 1.2-3.437 2.3-5.159 3.444-.251.174-.486.372-.732.558zm4.1-5.787c-.891-.964-2.1-1.008-3.435-.256a3.272 3.272 0 0 0-1.743 3.553z" class="cls-3" transform="translate(223.455 -1160.589)"/>
            <path id="Path_1356" d="M-111.106 1172.458a6.258 6.258 0 0 1 4.417-.838 5.183 5.183 0 0 1 3.611 2.363 1.227 1.227 0 0 1-.268 1.708h-.011a1.15 1.15 0 0 1-1.627.021l-.024-.023c-.27-.221-.526-.463-.8-.681a3.332 3.332 0 0 0-4.7.377 3.333 3.333 0 0 0-.739 1.552 41.294 41.294 0 0 0-.365 4.7 7.83 7.83 0 0 1-.144 1.3 1.354 1.354 0 0 1-1.491 1.087 1.238 1.238 0 0 1-1.192-1.28v-.093c0-.877.035-1.754.082-2.62q.2-3.756.428-7.509c.044-.7.093-1.443 1.052-1.533.935-.082 1.44.299 1.771 1.469z" class="cls-4" transform="translate(175.483 -1160.983)"/>
            <path id="Path_1357" d="M-52.629 1182.3c.291-2.981.57-5.962.877-8.943.107-1.036.565-1.358 1.578-1.228.964.117 1.326.614 1.208 1.62-.363 3.118-.7 6.238-1.082 9.356-.132 1.082-.467 1.377-1.331 1.309-.931-.074-1.315-.551-1.268-1.578 0-.176.019-.351.028-.526z" class="cls-4" transform="translate(128.335 -1161.843)"/>
            <path id="Path_1358" d="M-45.807 1157.338a1.429 1.429 0 0 1-1.536-1.313 1.653 1.653 0 0 1 0-.187 1.5 1.5 0 0 1 1.369-1.613.5.5 0 0 1 .081 0 1.645 1.645 0 0 1 1.68 1.538 1.538 1.538 0 0 1-1.5 1.579h-.1z" class="cls-4" transform="translate(124.29 -1148.202)"/>
        </g>
        <text id="App_tử_tế_từ_những_người_tận_tâm" fill="#fff" font-family="SVN-Lobster" font-size="13px" transform="translate(158 1166)">
            <tspan x="-69.589" y="0">App tử tế từ những người tận tâm</tspan>
        </text>
    </g>
</svg>
