<svg xmlns="http://www.w3.org/2000/svg" width="105.039" height="105.039" viewBox="0 0 105.039 105.039">
    <defs>
        <filter id="Path_104" width="105.039" height="105.039" x="0" y="0" filterUnits="userSpaceOnUse">
            <feOffset dy="3"/>
            <feGaussianBlur result="blur" stdDeviation="3"/>
            <feFlood flood-opacity=".161"/>
            <feComposite in2="blur" operator="in"/>
            <feComposite in="SourceGraphic"/>
        </filter>
        <filter id="Path_105" width="70.668" height="65.442" x="17.226" y="19.857" filterUnits="userSpaceOnUse">
            <feOffset dy="3"/>
            <feGaussianBlur result="blur-2" stdDeviation="3"/>
            <feFlood flood-opacity=".161"/>
            <feComposite in2="blur-2" operator="in"/>
            <feComposite in="SourceGraphic"/>
        </filter>
        <filter id="Path_108" width="54.379" height="35.723" x="25.529" y="40.039" filterUnits="userSpaceOnUse">
            <feOffset dy="3"/>
            <feGaussianBlur result="blur-3" stdDeviation="3"/>
            <feFlood flood-opacity=".161"/>
            <feComposite in2="blur-3" operator="in"/>
            <feComposite in="SourceGraphic"/>
        </filter>
        <style>
            .cls-1{fill:#fff}
        </style>
    </defs>
    <g id="Group_70" transform="translate(341.786 -315.619)">
        <g filter="url(#Path_104)" transform="translate(-341.79 315.62)">
            <path id="Path_104-2" d="M-289.266 321.619a43.569 43.569 0 0 0-43.52 43.519 43.569 43.569 0 0 0 43.52 43.52 43.569 43.569 0 0 0 43.52-43.52 43.569 43.569 0 0 0-43.52-43.519zm0 84.183a40.71 40.71 0 0 1-40.664-40.664 40.71 40.71 0 0 1 40.664-40.664 40.71 40.71 0 0 1 40.666 40.664 40.71 40.71 0 0 1-40.666 40.662z" class="cls-1" transform="translate(341.79 -315.62)"/>
        </g>
        <g filter="url(#Path_105)" transform="translate(-341.79 315.62)">
            <path id="Path_105-2" d="M-264.031 349.436h-36.577a8.056 8.056 0 0 0-8.046 8.046v31.35a8.056 8.056 0 0 0 8.046 8.046h36.577a8.056 8.056 0 0 0 8.046-8.046v-31.35a8.056 8.056 0 0 0-8.046-8.046zm-36.577 2.855h36.577a5.2 5.2 0 0 1 5.19 5.19v2.432H-305.8v-2.432a5.2 5.2 0 0 1 5.192-5.19zm36.577 41.732h-36.577a5.2 5.2 0 0 1-5.19-5.191v-26.063h46.958v26.063a5.2 5.2 0 0 1-5.191 5.191z" class="cls-1" transform="translate(334.88 -323.58)"/>
        </g>
        <path id="Path_106" d="M-298.612 360.037h4.948a1.428 1.428 0 0 0 1.428-1.428 1.428 1.428 0 0 0-1.428-1.428h-4.948a1.428 1.428 0 0 0-1.428 1.428 1.428 1.428 0 0 0 1.428 1.428z" class="cls-1" transform="translate(-9.371 -10.177)"/>
        <path id="Path_107" d="M-284.85 360.037h5.122a1.428 1.428 0 0 0 1.428-1.428 1.428 1.428 0 0 0-1.428-1.428h-5.122a1.428 1.428 0 0 0-1.428 1.428 1.427 1.427 0 0 0 1.428 1.428z" class="cls-1" transform="translate(-13.309 -10.177)"/>
        <g filter="url(#Path_108)" transform="translate(-341.79 315.62)">
            <path id="Path_108-2" d="M-279.177 377.709c-.175 0-.351 0-.528.009-10.288.322-16.417 8.148-16.672 8.482l-.646.841.618.862c.193.27 4.875 6.626 15.977 7.47q.812.061 1.6.061c9.967 0 16.926-7.053 17.232-7.369l.954-.984-.944-.993c-.331-.35-8.064-8.379-17.591-8.379zm6.152 8.837A5.98 5.98 0 0 1-279 392.52a5.98 5.98 0 0 1-5.973-5.974 5.977 5.977 0 0 1 5.846-5.967c.119 0 .238 0 .357.006a5.976 5.976 0 0 1 5.745 5.961zm-13.713-4.242a8.768 8.768 0 0 0-1.09 4.242 8.764 8.764 0 0 0 1.374 4.711 17.949 17.949 0 0 1-6.9-4.183 22.345 22.345 0 0 1 6.616-4.774zm15.3 8.776a8.761 8.761 0 0 0 1.267-4.534 8.757 8.757 0 0 0-.888-3.833 30.675 30.675 0 0 1 6.333 4.334 25.75 25.75 0 0 1-6.711 4.032z" class="cls-1" transform="translate(331.55 -331.67)"/>
        </g>
        <circle id="Ellipse_25" cx="2.978" cy="2.978" r="2.978" class="cls-1" transform="translate(-292.211 367.518)"/>
    </g>
</svg>
