<svg xmlns="http://www.w3.org/2000/svg" width="248" height="131" viewBox="0 0 248 131">
    <defs>
        <linearGradient id="linear-gradient" x1=".5" x2=".5" y2="1" gradientUnits="objectBoundingBox">
            <stop offset="0" stop-color="#f397b9"/>
            <stop offset="1" stop-color="#fff0b5"/>
        </linearGradient>
        <linearGradient id="linear-gradient-12" x1=".5" x2=".5" y2="1" gradientUnits="objectBoundingBox">
            <stop offset="0" stop-color="#f397b9"/>
            <stop offset="1" stop-color="#f8ddc8"/>
        </linearGradient>
        <clipPath id="clip-path">
            <rect id="Rectangle_2876" width="248" height="131" class="cls-1" rx="3" transform="translate(.15 .455)"/>
        </clipPath>
        <clipPath id="clip-path-2">
            <path id="Rectangle_2863" fill="none" d="M0 0H84.67V86.264H0z"/>
        </clipPath>
        <style>
            .cls-1{fill:#fff}.cls-9{fill:#f397b9}.cls-15,.cls-7{fill:#423832}.cls-11,.cls-8{fill:#ffe5d4}.cls-10{fill:#ffcfc5}.cls-11,.cls-12,.cls-15{fill-rule:evenodd}.cls-12{fill:#ffbebb}.cls-13{fill:#001d41}.cls-14{fill:#3295cc}.cls-22{fill:url(#linear-gradient);stroke:#fff;stroke-miterlimit:10;stroke-width:.294px}
        </style>
    </defs>
    <g id="Group_83" transform="translate(-36 -244)">
        <rect id="Rectangle_2875" width="248" height="131" class="cls-1" rx="3" transform="translate(36 244)"/>
        <g id="Mask_Group_4" clip-path="url(#clip-path)" transform="translate(35.849 243.545)">
            <g id="Group_20" transform="translate(141.965 48.858)">
                <path id="Path_2" fill="#f397b9" d="M497.786 104.16v50.071h-106.28c-.024-.18-.046-.356-.063-.529-.777-7.531 4.928-8.667 15.881-12.011 11.206-3.422 13.183-2.625 15.82-14.882s11.645-17.368 24.48-15.618 23.646 4.74 34.019-3.995c9.086-7.648 14.643-4.226 15.881-3.261a3.09 3.09 0 0 1 .262.225z" opacity="0.24" transform="translate(-391.372 -67.748)"/>
                <g id="Group_17" transform="translate(25.868)">
                    <g id="Group_16" clip-path="url(#clip-path-2)">
                        <g id="Group_15" transform="translate(14.177 22.539)">
                            <path id="Path_3" fill="#7ec4b7" d="M619.285 313.4s.2 3.478 4.188 10.4c5.336 9.269 14.528 15.758 19.3 17.27-1.719-17.229-14.395-27.088-14.395-27.088z" transform="translate(-618.602 -249.574)"/>
                            <path id="Path_4" d="M661.885 119.506c-7.624-2.571-15.668-1.061-19.5 6.425-3.743 7.319-.555 16.6-3.136 24.234s-8.345 15.221-.871 21.645c5.7 4.9 12.993 4.831 20.056 4.795 5.767-.03 13.207-.068 18.062-3.632 8.413-6.177 1.988-13.4-1.775-20.056-5.935-10.506 1.752-27.941-12.836-33.411z" class="cls-7" transform="translate(-628.966 -118.345)"/>
                            <path id="Path_5" d="M643.916 235.615a3.23 3.23 0 0 1-.363-3.763l9.4-10.718c2.049-2.786 4.778-3.409 6.534-1.684 1.669 1.64 1.248 4.278-1.285 6.452l-10.364 10.01c-.972.833-3.057.488-3.922-.297z" class="cls-8" transform="translate(-634.629 -185.721)"/>
                            <path id="Path_6" d="M673.652 214.433c-1.132-.474-5.619-.24-8.557 2.841-1.6 1.681-2.938 3.6-4.968 5.528 2.048 1.885 4.781 6.993 4.781 6.993s2.748-2.109 4.464-3.306c4.301-3.001 8.482-10.297 4.28-12.056z" class="cls-9" transform="translate(-646.08 -182.863)"/>
                            <g id="Group_3" transform="translate(17.256 28.261)">
                                <path id="Path_7" d="M680.431 205.337c3.225-1.453 7.5-.1 10.638 1.244 2.463 1.056 4.124 6.465 4.208 7.912.292 5.047-3.3 11.858-3.263 14.132.126 7.564 3.148 13.47-.862 18.047-7 7.986-20.69 4.731-21.2-5.2-.453-8.907 5.494-6.235 6.053-12.588.309-3.5-3.242-4.949-3.3-9.471-.03-2.468-1.2-5.929.572-8.494a16.387 16.387 0 0 1 7.154-5.582z" class="cls-8" transform="translate(-669.932 -204.711)"/>
                            </g>
                            <path id="Path_8" d="M675.073 309.9l-13.628 12.352c-.044.038-.086.076-.129.116-1.247 1.192-1.213 3.417.136 5.152 1.373 1.765 3.614 2.389 5.13 1.471l.353-.251 15-10.716c6.945-5.124 1.499-14.299-6.862-8.124z" class="cls-8" transform="translate(-646.269 -245.833)"/>
                            <path id="Path_9" d="M662.947 350.388c-2.338.187-4.114 1.857-3.963 3.732a3.079 3.079 0 0 0 .049.346l3.739 23.547a.8.8 0 0 0 .02.116c.094.626.145.98.145.98l-.023.4-1.03 8.4c.429 1.4 1.507 1.57 2.646 1.263a5.086 5.086 0 0 0 3.681-5.223 35.716 35.716 0 0 0-.722-5.168l-.072.006v-.89a.791.791 0 0 0 0-.142v-.566q0-.446.011-.918h-.009l.035-22.578-.026-.432v-.005c-.255-1.776-2.218-3.05-4.481-2.868z" class="cls-8" transform="translate(-645.304 -274.447)"/>
                            <path id="Path_10" d="M644.7 297.24l-13.628 12.352c-.044.038-.086.076-.129.116-1.247 1.192-1.213 3.417.136 5.152 1.373 1.765 3.614 2.389 5.13 1.471l.353-.251 15-10.716c6.938-5.131 1.496-14.304-6.862-8.124z" class="cls-8" transform="translate(-625.832 -237.312)"/>
                            <path id="Path_11" d="M625.733 337.617c-2.329-.283-4.4 1-4.629 2.865a3.042 3.042 0 0 0-.021.348l-1.039 23.819a.785.785 0 0 0 0 .118c-.033.632-.054.99-.054.99l-.1.392-2.687 8.025c.14 1.462 1.163 1.84 2.341 1.766a5.086 5.086 0 0 0 4.65-4.383 35.679 35.679 0 0 0 .324-5.208l-.072-.009q.085-.415.181-.872a.78.78 0 0 0 .033-.138l.114-.555.194-.9h-.009l4.544-22.116.06-.429v-.005c.093-1.793-1.576-3.433-3.83-3.708z" class="cls-8" transform="translate(-617.197 -265.841)"/>
                            <path id="Path_12" d="M693.456 207.269a.566.566 0 0 0 .049.1c.185.306.988 1.206 3.9.755a7.194 7.194 0 0 0 4.881-2.69l-1.581-1.867-1.921-.5-4.061 1.933z" class="cls-10" transform="translate(-668.502 -175.343)"/>
                            <g id="Group_4" transform="translate(.683 28.238)">
                                <path id="Path_13" d="M642.772 267.9c-8.921-5.674-9.713-24.756-23.488-27.671 4.488-2.494 6.322-5.933 10.027-10.3 4.137-4.871 9.16-2.242 9.311-4.453.111-1.622-.876-3.346-1.107-5-.778-5.6-1.17-11.04 7.672-14.384-3.443 4.977-1.256 5.694.013 9.781 4.194-3.974 7.453-4.157 5.557-11.1 10.909-1.665 14.46 12.93 12.206 32.771-1.445 12.734-10.863 21.965-20.191 30.356z" class="cls-9" transform="translate(-619.285 -204.642)"/>
                            </g>
                            <path id="Path_14" d="M659.318 175.433s-1.458-2.589-3.4-1.3.146 3.95 1.339 5.316 2.7 2.476 3.347.96z" class="cls-11" transform="translate(-642.716 -155.636)"/>
                            <g id="Group_5" transform="translate(3.653 26.982)">
                                <path id="Path_15" d="M633.671 225.889c-.053-.048-5.268-4.9-5.308-9.4a5.179 5.179 0 0 1 1.566-3.8 24.258 24.258 0 0 0 6.053-11.883l.475.7a24.224 24.224 0 0 1-6.127 11.614 4.508 4.508 0 0 0-1.613 3.409c.04 4.446 4.984 9.211 5.036 9.259z" class="cls-7" transform="translate(-628.362 -200.803)"/>
                            </g>
                            <path id="Path_16" d="M658.046 142.482c-.658-2.235-1.485-2.644-2.206-4.936a12.574 12.574 0 0 1 10.267-16.265c15.182.43 15.38 6.732 16.8 15.776-.894 7.4-6.433 11.652-11.467 13.8-3.669 1.56-11.351-1.441-13.394-8.375z" class="cls-11" transform="translate(-642.81 -120.32)"/>
                            <path id="Path_17" d="M687.486 186.053c0 1.584-.239 1.785-.83 2.378-.568.571-.125 1.436 1.5 1.3 1.578-.128 1.569-.705 1.569-.705a3.525 3.525 0 0 1-1.874-.345c-.5-.427.363-1.594-.365-2.628z" class="cls-12" transform="translate(-663.769 -163.898)"/>
                            <g id="Group_7" transform="translate(26.637 16.975)">
                                <ellipse id="Ellipse_1" cx="2.303" cy="2.815" class="cls-1" rx="2.303" ry="2.815" transform="rotate(-6.417 4.593 .258)"/>
                                <g id="Group_6" transform="translate(.254 .679)">
                                    <ellipse id="Ellipse_2" cx="1.902" cy="2.325" class="cls-13" rx="1.902" ry="2.325" transform="rotate(-6.417 3.809 .214)"/>
                                    <path id="Path_18" d="M701.527 177.337a2.446 2.446 0 0 1-2.014-2.281 2.349 2.349 0 0 1 1.81-2.748 1.934 1.934 0 0 1 1.577.583 2.8 2.8 0 0 1 .8 1.694 2.349 2.349 0 0 1-1.81 2.748 1.759 1.759 0 0 1-.363.004zm.122-4.627a1.368 1.368 0 0 0-.281 0 2.174 2.174 0 1 0 1.925 1.918 2.39 2.39 0 0 0-.677-1.449 1.6 1.6 0 0 0-.967-.469z" class="cls-14" transform="translate(-699.455 -172.296)"/>
                                </g>
                                <ellipse id="Ellipse_3" cx=".751" cy=".918" class="cls-1" rx=".751" ry=".918" transform="rotate(-6.417 13.693 -19.695)"/>
                            </g>
                            <g id="Group_9" transform="translate(17.039 17.502)">
                                <ellipse id="Ellipse_4" cx="2.303" cy="2.815" class="cls-1" rx="2.303" ry="2.815" transform="rotate(-1.471 4.596 .059)"/>
                                <g id="Group_8" transform="translate(.464 .527)">
                                    <ellipse id="Ellipse_5" cx="1.902" cy="2.325" class="cls-13" rx="1.902" ry="2.325" transform="rotate(-1.471 9.926 -5.521)"/>
                                    <path id="Path_19" d="M672.646 178.492a1.969 1.969 0 0 1-1.309-.71 2.8 2.8 0 0 1-.648-1.757 2.349 2.349 0 0 1 2.041-2.582 1.936 1.936 0 0 1 1.522.717 2.8 2.8 0 0 1 .649 1.757 2.349 2.349 0 0 1-2.04 2.582 1.781 1.781 0 0 1-.215-.007zm.256-4.636a1.414 1.414 0 0 0-.162-.005 1.947 1.947 0 0 0-1.643 2.164 2.387 2.387 0 0 0 .55 1.5 1.534 1.534 0 0 0 1.2.576 1.948 1.948 0 0 0 1.643-2.164 2.389 2.389 0 0 0-.55-1.5 1.571 1.571 0 0 0-1.04-.571z" class="cls-14" transform="translate(-670.687 -173.443)"/>
                                </g>
                                <ellipse id="Ellipse_6" cx=".751" cy=".918" class="cls-1" rx=".751" ry=".918" transform="rotate(-1.471 48.837 -96.136)"/>
                            </g>
                            <path id="Path_20" d="M670.117 167.337a1.628 1.628 0 0 0-1.4 1.716 7.866 7.866 0 0 1 3.55-1.216 3.051 3.051 0 0 0-2.15-.5z" class="cls-7" transform="translate(-651.857 -151.275)"/>
                            <path id="Path_21" d="M706.028 165.288A1.688 1.688 0 0 1 707.5 167a7.686 7.686 0 0 0-3.568-1.129 2.916 2.916 0 0 1 2.096-.583z" class="cls-7" transform="translate(-675.548 -149.905)"/>
                            <path id="Path_22" d="M667.124 127.338c8.542 6.146 13.88 1.576 17.365 11.8l4.188-5.32s.838 1.23 1.05-2.6c-.475-11.111-13.691-15.894-22.848-10.413-3.531 2.088-3.479 4.401.245 6.533z" class="cls-15" transform="translate(-648.874 -118.464)"/>
                            <path id="Path_23" d="M719.857 167.517c2.145 2.419 3.46 10.9 3.46 10.308.459-1.533.334-4.964-.839-10.7l-2.613.083z" class="cls-15" transform="translate(-686.264 -151.165)"/>
                            <path id="Path_24" d="M659.966 150.224c-4.917-5.039-9.681-16.993-.178-24.258 0 0 6.658 5 6.94 5.909.723 2.334-14.152 6.095-6.762 18.349z" class="cls-15" transform="translate(-642.172 -123.472)"/>
                            <ellipse id="Ellipse_7" cx="1.188" cy="1.675" class="cls-10" rx="1.188" ry="1.675" transform="rotate(-88.91 27.359 -1.725)"/>
                            <ellipse id="Ellipse_8" cx="1.675" cy="1.188" class="cls-10" rx="1.675" ry="1.188" transform="rotate(-9.078 164.851 -100.68)"/>
                            <ellipse id="Ellipse_9" cx="1.066" cy=".993" fill="#fffdea" rx="1.066" ry=".993" transform="rotate(-11.69 129.389 -167.599)"/>
                            <path id="Path_25" d="M727.738 166.344s.363-2.949 2.647-2.5 1.368 3.708.786 5.425-1.555 3.318-2.729 2.162z" class="cls-11" transform="translate(-691.567 -148.927)"/>
                            <path id="Path_26" d="M732.07 167.626c.755.538.655 2.378.372 3.409s-.98 1.665-1.293 1.2.137-.972-.1-1.562-.538-.229-.625-.7c-.141-.751.276-3.323 1.646-2.347z" class="cls-12" transform="translate(-693.355 -151.353)"/>
                            <path id="Path_27" d="M645.921 256.115l7.348 6.051a2.386 2.386 0 0 1 .241 2.932 2.294 2.294 0 0 1-2.627 1.124l-8.354-4.51c-.982-.457-1.54-2.7-.5-4.358 1.002-1.586 3.108-1.935 3.892-1.239z" class="cls-8" transform="translate(-633.529 -210.805)"/>
                            <g id="Group_10" transform="translate(23.41 26.794)">
                                <path id="Path_28" fill="#8d3733" d="M688.921 200.655c-.556-.185.207 1.982 1.792 2 .822.011 2.182-1.411 1.721-2.228s-1.52 1.194-3.513.228z" transform="translate(-688.74 -200.23)"/>
                                <path id="Path_29" fill="#e44e33" d="M695.076 204.4a2.138 2.138 0 0 0-2.12.936 1.716 1.716 0 0 0 .593.115 2.222 2.222 0 0 0 1.527-1.051z" transform="translate(-691.577 -203.019)"/>
                            </g>
                            <path id="Path_30" d="M728.288 236.215a3.231 3.231 0 0 1-2.916-2.405l-.495-14.766c-.519-3.419.971-5.789 3.432-5.809 2.34-.02 3.907 2.144 3.651 5.472l-.688 14.948c-.098 1.273-1.817 2.503-2.984 2.56z" class="cls-8" transform="translate(-689.573 -182.184)"/>
                            <path id="Path_31" d="M705.391 271.962l-12.3 5.5a2.8 2.8 0 0 1-3.246-1.253 2.7 2.7 0 0 1 .835-3.262l11.623-6.759c1.275-.833 4.072-.507 4.951 1.242.846 1.675-.5 3.999-1.863 4.532z" class="cls-8" transform="translate(-665.908 -217.516)"/>
                            <path id="Path_32" d="M725.816 209.645c1.282.524 3.672 2.629 3.561 7.434-.06 2.622-.523 5.218-.441 8.379a22.971 22.971 0 0 0-7 1.212s-.929-3.686-1.344-6.012c-1.047-5.826.463-12.958 5.224-11.013z" class="cls-9" transform="translate(-686.545 -179.55)"/>
                            <g id="Group_11" transform="translate(15.468 45.471)">
                                <path id="Path_33" fill="#999" d="M668.448 257.711l4.319-.4c.346-.032.645.269.736.743l2.228 11.575c.14.726-.256 1.512-.787 1.561l-4.494.419c-.352.033-.654-.279-.74-.765l-2.053-11.591c-.128-.725.266-1.493.791-1.542z" transform="translate(-666.597 -257.306)"/>
                                <path id="Path_34" fill="#4d4d4d" d="M665.378 257.872l4.759-.445a.8.8 0 0 1 .8.737l2.341 11.564a1.292 1.292 0 0 1-.881 1.57l-4.952.463c-.388.036-.718-.273-.808-.759l-2.148-11.582a1.288 1.288 0 0 1 .889-1.548z" transform="translate(-664.468 -257.386)"/>
                            </g>
                            <g id="Group_14" transform="translate(21.404 53.1)">
                                <g id="Group_13">
                                    <g id="Group_12">
                                        <path id="Path_35" d="M687.856 281.825c-.67-.447-2.409-1.584-3.04-1.074-.368.3.276 1.207.276 1.207-.177.047-.611.151-1.03.288-.868-.1-1.529.329-1.447.695.058.262.8.581.8.581s-.776.381-.778.739.824.595.824.595-.67.521-.562.869 1.041.47 1.041.47-.422.722-.278 1.057 1.814.235 1.814.235a6.621 6.621 0 0 0 2.9-.026c.756-.2 1.22-1.516 1.231-2.875a3.222 3.222 0 0 0-1.751-2.761z" class="cls-8" transform="translate(-682.609 -280.622)"/>
                                    </g>
                                </g>
                            </g>
                        </g>
                    </g>
                </g>
                <g id="Group_18" transform="translate(71.56 50.025)">
                    <path id="Path_36" fill="url(#linear-gradient)" d="M751.883 240.114h-24.865c2.289-11.7 13.475-18.7 17.832-25.017a15.479 15.479 0 0 0 3-11.254c3.844 3.933 9.914 19.181 4.033 36.271z" transform="translate(-727.018 -203.843)"/>
                    <path id="Path_37" d="M766.394 272.024s.35-6.042-.486-8.529" class="cls-22" transform="translate(-753.182 -243.976)"/>
                    <path id="Path_38" d="M756.177 244.149c.114-.417.242-.834.386-1.243v-.006c1.773-5.161 5.184-9.882 7.973-14.733a.109.109 0 0 1 .022-.03c3.213-5.615 5.593-11.413 3.623-18.295" class="cls-22" transform="translate(-746.636 -207.878)"/>
                    <path id="Path_39" d="M757.319 301.125a22.36 22.36 0 0 1 9.755-4.764" class="cls-22" transform="translate(-747.404 -266.087)"/>
                    <path id="Path_40" d="M781.38 259.405s3.026-3.3 6.088-3.3" class="cls-22" transform="translate(-763.592 -239.004)"/>
                </g>
                <g id="Group_19" transform="translate(86.236 59.45)">
                    <path id="Path_41" fill="url(#linear-gradient)" d="M790.271 259.493h-18.4c1.694-8.661 9.973-13.843 13.2-18.516a11.457 11.457 0 0 0 2.221-8.33c2.838 2.911 7.331 14.197 2.979 26.846z" opacity="0.51" transform="translate(-771.867 -232.647)"/>
                    <path id="Path_42" d="M801.01 283.111s.259-4.471-.359-6.313" class="cls-22" transform="translate(-791.232 -262.351)"/>
                    <path id="Path_43" fill="none" stroke="#fff" stroke-miterlimit="10" stroke-width="0.294px" d="M793.448 262.48c.084-.309.18-.617.286-.92v-.006c1.313-3.82 3.837-7.314 5.9-10.9a.071.071 0 0 1 .017-.023c2.378-4.156 4.14-8.448 2.681-13.54" transform="translate(-786.386 -235.634)"/>
                    <path id="Path_44" d="M794.294 304.649a16.549 16.549 0 0 1 7.22-3.526" class="cls-22" transform="translate(-786.956 -278.716)"/>
                    <path id="Path_45" d="M812.1 273.771s2.24-2.443 4.506-2.442" class="cls-22" transform="translate(-798.936 -258.671)"/>
                </g>
            </g>
            <g id="Group_50" opacity="0.41" transform="translate(0 42.345)">
                <path id="Path_60" fill="url(#linear-gradient)" d="M750.939 196.313V240.9h127.183c2.962-29.856-46.325-14.342-35.156-37.712s-.972-47.731-15.344-42.337-23.946 17.363-47.45 17.6-29.233 17.862-29.233 17.862z" opacity="0.39" transform="translate(-750.939 -149.263)"/>
                <path id="Path_61" fill="url(#linear-gradient)" d="M817.381 104.347v80.081h94.881s21.269-10.3 21.723-27.861-10.108-27.682-33.622-28.3-25.433-34.078-54.207-35.417c-14.146-.663-23.212 4.132-28.775 11.497z" opacity="0.29" transform="translate(-817.381 -92.789)"/>
                <g id="Group_33" transform="translate(58.591 33.525)">
                    <path id="Path_75" d="M1026.942 199.661l.214 1.739-.214 1.739-.215-1.739z" class="cls-1" transform="translate(-1025.203 -199.661)"/>
                    <path id="Path_76" d="M1015.835 210.768l1.739-.215 1.739.215-1.739.215z" class="cls-1" transform="translate(-1015.835 -209.029)"/>
                </g>
            </g>
        </g>
        <g id="Group_51" transform="translate(0 -6)">
            <rect id="Rectangle_2873" width="113" height="15" fill="url(#linear-gradient-12)" rx="2" transform="translate(163 259)"/>
            <text id="_1_lượt_tải_10.000_VNĐ" fill="#fff" font-family="HelveticaNeue-Bold, Helvetica Neue" font-size="8px" font-weight="700" transform="translate(170 270)">
                <tspan x="0" y="0">1 LƯỢT TẢI = 10.000 VNĐ</tspan>
            </text>
        </g>
        <text id="Tất_cả_số_tiền_quyên_góp_sẽ_được_chuyển_đến_quỹ_của_Mặt_trận_Tổ_quốc_Việt_Nam_sau_khi_chiến_dịch_tải_ứng_dụng_kết_thúc." fill="#f397b9" font-family="HelveticaNeue-Italic, Helvetica Neue" font-size="8px" font-style="italic" transform="translate(160 303)">
            <tspan x="-83.864" y="0">Tất cả số tiền quyên góp sẽ được chuyển đến </tspan><tspan x="-88.852" y="10">quỹ của Mặt trận Tổ quốc Việt Nam sau khi chiến </tspan><tspan x="-48.368" y="20">dịch tải ứng dụng kết thúc.</tspan>
        </text>
        <text id="Ủng_hộ_đồng_bào" fill="#f397b9" font-family="HelveticaNeue-Bold, Helvetica Neue" font-size="11px" font-weight="700" transform="translate(45 289)">
            <tspan x="0" y="0">ỦNG HỘ ĐỒNG BÀO</tspan>
        </text>
        <text id="miền_trung" fill="#f397b9" font-family="HelveticaNeue-Bold, Helvetica Neue" font-size="16px" font-weight="700" transform="translate(162 289)">
            <tspan x="0" y="0">MIỀN TRUNG</tspan>
        </text>
        <g id="Group_28" transform="translate(45 253)">
            <rect id="Rectangle_2866" width="113" height="22" class="cls-9" rx="2"/>
            <text id="tải_ứng_dụng_ngay" fill="#fff" font-family="HelveticaNeue-Medium, Helvetica Neue" font-size="10px" font-weight="500" transform="translate(108 15)">
                <tspan x="-103.26" y="0">TẢI ỨNG DỤNG NGAY</tspan>
            </text>
        </g>
    </g>
</svg>
