<svg xmlns="http://www.w3.org/2000/svg" width="101.069" height="101.07" viewBox="0 0 101.069 101.07">
    <defs>
        <filter id="Path_100" width="101.069" height="101.07" x="0" y="0" filterUnits="userSpaceOnUse">
            <feOffset dy="3"/>
            <feGaussianBlur result="blur" stdDeviation="3"/>
            <feFlood flood-opacity=".161"/>
            <feComposite in2="blur" operator="in"/>
            <feComposite in="SourceGraphic"/>
        </filter>
        <filter id="Path_101" width="71.329" height="43.356" x="14.871" y="40.277" filterUnits="userSpaceOnUse">
            <feOffset dy="3"/>
            <feGaussianBlur result="blur-2" stdDeviation="3"/>
            <feFlood flood-opacity=".161"/>
            <feComposite in2="blur-2" operator="in"/>
            <feComposite in="SourceGraphic"/>
        </filter>
        <filter id="Path_102" width="47.106" height="43.87" x="31.319" y="17.437" filterUnits="userSpaceOnUse">
            <feOffset dy="3"/>
            <feGaussianBlur result="blur-3" stdDeviation="3"/>
            <feFlood flood-opacity=".161"/>
            <feComposite in2="blur-3" operator="in"/>
            <feComposite in="SourceGraphic"/>
        </filter>
        <style>
            .cls-1{fill:#fff}
        </style>
    </defs>
    <g id="Group_69" transform="translate(-181.476 -392.795)">
        <g filter="url(#Path_100)" transform="translate(181.48 392.8)">
            <path id="Path_100-2" d="M232.011 398.8a41.535 41.535 0 1 0 41.534 41.535 41.582 41.582 0 0 0-41.534-41.535zm0 79.691a38.156 38.156 0 1 1 38.155-38.156 38.2 38.2 0 0 1-38.155 38.151z" class="cls-1" transform="translate(-181.48 -392.8)"/>
        </g>
        <g filter="url(#Path_101)" transform="translate(181.48 392.8)">
            <path id="Path_101-2" d="M259.974 466.1l-9.185 3.157c0-.079.007-.157.007-.234a4.456 4.456 0 0 0-4.452-4.451h-6.659a.706.706 0 0 1-.34-.089l-5.433-3.056a7.542 7.542 0 0 0-3.695-.969h-7.061a3.428 3.428 0 0 0-3.137-2.056h-6.17a1.368 1.368 0 0 0-1.366 1.366v18.51a1.368 1.368 0 0 0 1.366 1.366h6.17a3.45 3.45 0 0 0 3.087-1.947 8.713 8.713 0 0 1 2.975.917l5.378 3.227a13.447 13.447 0 0 0 12.479.714l19.185-8.448a4.309 4.309 0 0 0 2.433-2.533 4.374 4.374 0 0 0-.3-3.6 4.328 4.328 0 0 0-5.282-1.874zm-13.63 4.642h-10.453a1.366 1.366 0 0 0 0 2.732h10.454a4.338 4.338 0 0 0 2.037-.5l12.509-4.3a1.609 1.609 0 0 1 1.96.6 1.691 1.691 0 0 1 .13 1.389 1.563 1.563 0 0 1-.891.918l-.043.017-19.23 8.468a10.829 10.829 0 0 1-9.952-.565l-5.378-3.227a11.5 11.5 0 0 0-4.046-1.287v-11.798h6.776a4.809 4.809 0 0 1 2.356.617l5.433 3.056a3.425 3.425 0 0 0 1.679.441h6.659a1.719 1.719 0 1 1 0 3.438zm-25.635-8.918v14.4a.691.691 0 0 1-.69.687h-4.8v-15.779h4.8a.691.691 0 0 1 .69.69z" class="cls-1" transform="translate(-188.61 -412.12)"/>
        </g>
        <g filter="url(#Path_102)" transform="translate(181.48 392.8)">
            <path id="Path_102-2" d="M237.807 432.224a1.364 1.364 0 0 0 1.695-.927 5.25 5.25 0 0 1 5.039-3.965c2.744 0 4.7 2.481 5.358 4.784a1.366 1.366 0 0 0 2.633 0c.013-.048 1.39-4.784 5.358-4.784 3.026 0 5.308 2.527 5.308 5.879 0 3.949-3.482 6.924-9.8 12.326q-.985.842-2.058 1.763c-1-.856-1.953-1.657-2.856-2.416-3.258-2.737-5.832-4.9-7.447-7.015a1.366 1.366 0 1 0-2.172 1.658c1.8 2.358 4.477 4.606 7.865 7.452 1.162.977 2.4 2.02 3.717 3.158a1.366 1.366 0 0 0 1.789 0c.979-.849 1.915-1.648 2.8-2.408 6.792-5.807 10.893-9.312 10.893-14.518 0-4.828-3.532-8.611-8.041-8.611a7.819 7.819 0 0 0-6.675 3.943 7.819 7.819 0 0 0-6.674-3.943 7.926 7.926 0 0 0-7.661 5.929 1.368 1.368 0 0 0 .929 1.695z" class="cls-1" transform="translate(-196.51 -401.16)"/>
        </g>
        <path id="Path_103" d="M238.208 438.507a1.028 1.028 0 1 0 1.028 1.028 1.029 1.029 0 0 0-1.028-1.028z" class="cls-1" transform="translate(-15.144 -12.877)"/>
    </g>
</svg>
