<svg xmlns="http://www.w3.org/2000/svg" width="960" height="391" viewBox="0 0 960 391">
    <defs>
        <linearGradient id="linear-gradient" x1=".5" x2=".5" y2="1" gradientUnits="objectBoundingBox">
            <stop offset="0" stop-color="#f397b9"/>
            <stop offset="1" stop-color="#fff0b5"/>
        </linearGradient>
        <linearGradient id="linear-gradient-12" x1=".5" x2=".5" y2="1" gradientUnits="objectBoundingBox">
            <stop offset="0" stop-color="#f397b9"/>
            <stop offset="1" stop-color="#f8ddc8"/>
        </linearGradient>
        <clipPath id="clip-path">
            <rect id="Rectangle_2876" width="960" height="391" class="cls-1" rx="26" transform="translate(480 1721)"/>
        </clipPath>
        <clipPath id="clip-path-2">
            <path id="Rectangle_2863" fill="none" d="M0 0H202.429V206.241H0z"/>
        </clipPath>
        <style>
            .cls-1{fill:#fff}.cls-9{fill:#f397b9}.cls-15,.cls-7{fill:#423832}.cls-11,.cls-8{fill:#ffe5d4}.cls-10{fill:#ffcfc5}.cls-11,.cls-12,.cls-15{fill-rule:evenodd}.cls-12{fill:#ffbebb}.cls-13{fill:#001d41}.cls-14{fill:#3295cc}.cls-22{fill:url(#linear-gradient);stroke:#fff;stroke-miterlimit:10;stroke-width:.294px}
        </style>
    </defs>
    <g id="Group_112" transform="translate(-480 -1309)">
        <rect id="Rectangle_2875" width="960" height="391" class="cls-1" rx="27" transform="translate(480 1309)"/>
        <g id="Mask_Group_4" clip-path="url(#clip-path)" transform="translate(0 -412)">
            <g id="Group_20" transform="translate(1191.969 1916.5)">
                <path id="Path_2" fill="#f397b9" d="M645.788 106.7v119.706h-254.1c-.058-.431-.111-.851-.151-1.265-1.859-18.005 11.782-20.721 37.968-28.715 26.792-8.181 31.518-6.276 37.823-35.579s27.841-41.523 58.526-37.339 56.533 11.333 81.333-9.55c21.723-18.285 35.008-10.1 37.969-7.8a7.388 7.388 0 0 1 .632.542z" opacity="0.24" transform="translate(-391.372 -19.641)"/>
                <g id="Group_17" transform="translate(61.845)">
                    <g id="Group_16" clip-path="url(#clip-path-2)">
                        <g id="Group_15" transform="translate(33.895 53.887)">
                            <path id="Path_3" fill="#7ec4b7" d="M619.285 313.4s.484 8.315 10.013 24.866c12.757 22.159 34.733 37.674 46.141 41.289-4.11-41.19-34.414-64.763-34.414-64.763z" transform="translate(-617.651 -160.804)"/>
                            <path id="Path_4" d="M699.709 121.121c-18.228-6.147-37.459-2.535-46.612 15.362-8.95 17.5-1.326 39.7-7.5 57.939s-19.951 36.39-2.082 51.748c13.618 11.7 31.065 11.551 47.951 11.463 13.788-.072 31.576-.162 43.183-8.682 20.114-14.767 4.753-32.033-4.244-47.951-14.196-25.118 4.181-66.8-30.696-79.879z" class="cls-7" transform="translate(-621.005 -118.345)"/>
                            <path id="Path_5" d="M645.039 259.432c-2.061-1.869-2.662-6.557-.868-9l22.472-25.625c4.9-6.661 11.423-8.149 15.621-4.026 3.991 3.92 2.984 10.227-3.072 15.424l-24.779 23.932c-2.319 1.996-7.305 1.171-9.374-.705z" class="cls-8" transform="translate(-622.837 -140.145)"/>
                            <path id="Path_6" d="M692.462 214.7c-2.705-1.133-13.433-.573-20.458 6.792-3.833 4.019-7.024 8.6-11.876 13.216 4.9 4.507 11.431 16.719 11.431 16.719s6.571-5.042 10.672-7.9c10.28-7.182 20.278-24.627 10.231-28.827z" class="cls-9" transform="translate(-626.542 -139.22)"/>
                            <g id="Group_3" transform="translate(41.256 67.566)">
                                <path id="Path_7" d="M695.033 206.209c7.711-3.474 17.923-.246 25.432 2.974 5.888 2.524 9.86 15.456 10.061 18.917.7 12.066-7.891 28.35-7.8 33.786.3 18.084 7.526 32.205-2.062 43.146-16.733 19.092-49.466 11.311-50.673-12.441-1.083-21.294 13.134-14.906 14.473-30.1.738-8.378-7.751-11.832-7.881-22.643-.071-5.9-2.862-14.175 1.367-20.308 3.897-5.64 9.373-9.858 17.083-13.331z" class="cls-8" transform="translate(-669.932 -204.711)"/>
                            </g>
                            <path id="Path_8" d="M695.467 312.777l-32.583 29.532c-.1.092-.206.182-.308.277-2.981 2.85-2.9 8.168.326 12.318 3.282 4.22 8.64 5.712 12.264 3.517l.845-.6.01-.007 35.872-25.62c16.584-12.26 3.564-34.194-16.426-19.417z" class="cls-8" transform="translate(-626.603 -159.594)"/>
                            <path id="Path_9" d="M668.472 350.412c-5.59.448-9.834 4.44-9.475 8.922a7.211 7.211 0 0 0 .117.826l8.94 56.3a1.933 1.933 0 0 0 .048.278c.224 1.5.347 2.344.347 2.344l-.055.968-2.463 20.084c1.025 3.359 3.6 3.754 6.326 3.021a12.16 12.16 0 0 0 8.8-12.488 85.348 85.348 0 0 0-1.727-12.355l-.172.013q0-1.012.008-2.128a1.888 1.888 0 0 0 .011-.34v-1.353q.011-1.065.026-2.2h-.022l.085-53.979-.063-1.033v-.013c-.627-4.256-5.321-7.301-10.731-6.867z" class="cls-8" transform="translate(-626.291 -168.852)"/>
                            <path id="Path_10" d="M665.092 300.112l-32.583 29.532c-.1.092-.206.182-.308.277-2.982 2.85-2.9 8.168.325 12.318 3.282 4.22 8.64 5.712 12.264 3.517l.845-.6.01-.007 35.873-25.62c16.582-12.26 3.563-34.193-16.426-19.417z" class="cls-8" transform="translate(-619.991 -156.837)"/>
                            <path id="Path_11" d="M637.605 337.672c-5.568-.677-10.524 2.387-11.067 6.85a7.3 7.3 0 0 0-.049.832l-2.484 56.946a1.9 1.9 0 0 0-.009.282c-.08 1.512-.128 2.367-.128 2.367l-.246.936-6.422 19.189c.334 3.5 2.78 4.4 5.6 4.223a12.159 12.159 0 0 0 11.117-10.479 85.306 85.306 0 0 0 .775-12.451l-.171-.021q.2-.992.433-2.084a1.865 1.865 0 0 0 .078-.33l.273-1.326q.222-1.042.463-2.146h-.022l10.854-52.878.144-1.025v-.012c.24-4.296-3.751-8.217-9.139-8.873z" class="cls-8" transform="translate(-617.197 -166.067)"/>
                            <path id="Path_12" d="M693.456 213.115a1.366 1.366 0 0 0 .117.232c.441.732 2.362 2.883 9.328 1.806 8.328-1.288 11.669-6.432 11.669-6.432l-3.781-4.463-4.592-1.193-9.711 4.638z" class="cls-10" transform="translate(-633.797 -136.787)"/>
                            <g id="Group_4" transform="translate(1.633 67.512)">
                                <path id="Path_13" d="M675.439 355.882c-21.329-13.566-23.222-59.187-56.154-66.156 10.73-5.962 15.115-14.185 23.973-24.614 9.892-11.646 21.9-5.361 22.261-10.647.265-3.877-2.1-8-2.646-11.96-1.86-13.392-2.8-26.4 18.342-34.389-8.232 11.9-3 13.614.032 23.384 10.028-9.5 17.818-9.939 13.286-26.547 26.081-3.981 34.572 30.914 29.182 78.349-3.459 30.445-25.969 52.515-48.276 72.58z" class="cls-9" transform="translate(-619.285 -204.642)"/>
                            </g>
                            <path id="Path_14" d="M665.145 177.741s-3.487-6.189-8.124-3.107.35 9.443 3.2 12.71 6.459 5.92 8 2.295z" class="cls-11" transform="translate(-625.454 -130.411)"/>
                            <g id="Group_5" transform="translate(8.735 64.509)">
                                <path id="Path_15" d="M641.054 260.778c-.127-.116-12.595-11.7-12.691-22.475a12.381 12.381 0 0 1 3.744-9.091c11.79-11.924 14.446-28.246 14.471-28.409l1.135 1.673c-.026.165-2.782 15.768-14.647 27.768-2.45 2.478-3.887 4.757-3.857 8.149.095 10.629 11.916 22.022 12.042 22.137z" class="cls-7" transform="translate(-628.362 -200.803)"/>
                            </g>
                            <path id="Path_16" d="M661.909 171.969c-1.574-5.343-3.55-6.321-5.275-11.8-5.518-18.1 6.274-36.524 24.546-38.886 36.3 1.027 36.77 16.1 40.171 37.717-2.139 17.685-15.381 27.858-27.417 32.984-8.774 3.737-27.141-3.437-32.025-20.015z" class="cls-11" transform="translate(-625.484 -118.984)"/>
                            <path id="Path_17" d="M688.967 186.053c0 3.788-.572 4.267-1.983 5.685-1.358 1.364-.3 3.434 3.584 3.119 3.772-.305 3.752-1.687 3.752-1.687s-3.286.2-4.48-.825.869-3.821-.873-6.292z" class="cls-12" transform="translate(-632.265 -133.084)"/>
                            <g id="Group_7" transform="translate(63.684 40.585)">
                                <ellipse id="Ellipse_1" cx="5.506" cy="6.729" class="cls-1" rx="5.506" ry="6.729" transform="rotate(-6.417 10.98 .616)"/>
                                <g id="Group_6" transform="translate(.607 1.623)">
                                    <ellipse id="Ellipse_2" cx="4.548" cy="5.558" class="cls-13" rx="4.548" ry="5.558" transform="rotate(-6.417 9.098 .51)"/>
                                    <path id="Path_18" d="M704.355 184.348c-2.409-.223-4.483-2.49-4.816-5.454-.372-3.312 1.569-6.26 4.328-6.571a4.625 4.625 0 0 1 3.772 1.394 6.685 6.685 0 0 1 1.907 4.051c.372 3.313-1.569 6.261-4.328 6.571a4.194 4.194 0 0 1-.863.009zm.293-11.062a3.27 3.27 0 0 0-.672.006c-2.225.25-3.781 2.715-3.469 5.493s2.378 4.834 4.6 4.586 3.781-2.715 3.468-5.493a5.713 5.713 0 0 0-1.619-3.463 3.83 3.83 0 0 0-2.308-1.129z" class="cls-14" transform="translate(-699.402 -172.296)"/>
                                </g>
                                <ellipse id="Ellipse_3" cx="1.795" cy="2.194" class="cls-1" rx="1.795" ry="2.194" transform="rotate(-6.417 32.739 -47.09)"/>
                            </g>
                            <g id="Group_9" transform="translate(40.736 41.844)">
                                <ellipse id="Ellipse_4" cx="5.506" cy="6.729" class="cls-1" rx="5.506" ry="6.729" transform="rotate(-1.471 11.022 .142)"/>
                                <g id="Group_8" transform="translate(1.11 1.26)">
                                    <ellipse id="Ellipse_5" cx="4.548" cy="5.558" class="cls-13" rx="4.548" ry="5.558" transform="rotate(-1.471 23.737 -13.212)"/>
                                    <path id="Path_19" d="M675.37 185.514a4.707 4.707 0 0 1-3.13-1.7 6.686 6.686 0 0 1-1.551-4.2c-.085-3.333 2.1-6.1 4.879-6.173a4.628 4.628 0 0 1 3.638 1.713 6.683 6.683 0 0 1 1.551 4.2c.085 3.332-2.1 6.1-4.878 6.173a4.225 4.225 0 0 1-.509-.013zm.611-11.083a3.361 3.361 0 0 0-.388-.012c-2.238.057-4 2.378-3.929 5.173a5.709 5.709 0 0 0 1.314 3.589 3.667 3.667 0 0 0 2.875 1.376c2.237-.058 4-2.378 3.929-5.174a5.711 5.711 0 0 0-1.314-3.589 3.756 3.756 0 0 0-2.487-1.363z" class="cls-14" transform="translate(-670.687 -173.443)"/>
                                </g>
                                <ellipse id="Ellipse_6" cx="1.795" cy="2.194" class="cls-1" rx="1.795" ry="2.194" transform="rotate(-1.471 116.737 -229.852)"/>
                            </g>
                            <path id="Path_20" d="M672.069 167.4a3.892 3.892 0 0 0-3.355 4.1 18.806 18.806 0 0 1 8.487-2.908 7.3 7.3 0 0 0-5.132-1.192z" class="cls-7" transform="translate(-628.411 -129)"/>
                            <path id="Path_21" d="M708.948 165.335c3.472.659 3.373 3.431 3.51 4.092a18.377 18.377 0 0 0-8.53-2.7 6.972 6.972 0 0 1 5.02-1.392z" class="cls-7" transform="translate(-636.076 -128.556)"/>
                            <path id="Path_22" d="M671.078 139.6c20.423 14.694 33.185 3.768 41.516 28.2l10.012-12.719s2 2.941 2.51-6.227c-1.135-26.565-32.733-38-54.625-24.9-8.44 5.02-8.309 10.546.587 15.646z" class="cls-15" transform="translate(-627.446 -118.383)"/>
                            <path id="Path_23" d="M719.857 168.057c5.129 5.783 8.272 26.065 8.272 24.645 1.1-3.664.8-11.867-2.007-25.574l-6.247.2z" class="cls-15" transform="translate(-639.544 -128.964)"/>
                            <path id="Path_24" d="M667.821 183.962c-11.755-12.047-23.147-40.627-.426-58 0 0 15.919 11.958 16.591 14.126 1.729 5.585-33.835 14.578-16.165 43.874z" class="cls-15" transform="translate(-625.278 -120.004)"/>
                            <ellipse id="Ellipse_7" cx="2.839" cy="4.004" class="cls-10" rx="2.839" ry="4.004" transform="rotate(-88.91 65.41 -4.124)"/>
                            <ellipse id="Ellipse_8" cx="4.004" cy="2.839" class="cls-10" rx="4.004" ry="2.839" transform="rotate(-9.078 394.127 -240.706)"/>
                            <ellipse id="Ellipse_9" cx="2.548" cy="2.375" fill="#fffdea" rx="2.548" ry="2.375" transform="rotate(-11.69 309.344 -400.696)"/>
                            <path id="Path_25" d="M727.738 169.88s.868-7.05 6.329-5.966 3.272 8.865 1.88 12.97-3.718 7.934-6.525 5.169z" class="cls-11" transform="translate(-641.259 -128.24)"/>
                            <path id="Path_26" d="M734.4 167.93c1.8 1.287 1.566 5.686.889 8.15s-2.343 3.98-3.091 2.863.329-2.325-.242-3.734-1.285-.548-1.5-1.68c-.331-1.785.663-7.929 3.944-5.599z" class="cls-12" transform="translate(-641.838 -129.025)"/>
                            <path id="Path_27" d="M652.109 256.589l17.568 14.467a5.7 5.7 0 0 1 .575 7.009c-1.662 2.683-4.7 3.425-6.28 2.687L644 269.971c-2.348-1.094-3.682-6.463-1.189-10.42 2.389-3.791 7.422-4.626 9.298-2.962z" class="cls-8" transform="translate(-622.481 -148.26)"/>
                            <g id="Group_10" transform="translate(55.97 64.06)">
                                <path id="Path_28" fill="#8d3733" d="M689.172 201.246c-1.328-.442.494 4.738 4.284 4.789 1.966.027 5.216-3.374 4.116-5.327s-3.635 2.848-8.4.538z" transform="translate(-688.74 -200.23)"/>
                                <path id="Path_29" fill="#e44e33" d="M698.025 204.425a5.11 5.11 0 0 0-5.069 2.238 4.1 4.1 0 0 0 1.418.275c1.155.017 2.752-1.151 3.651-2.513z" transform="translate(-689.658 -201.132)"/>
                            </g>
                            <path id="Path_30" d="M733.175 268.177c-2.78.135-6.517-2.757-6.973-5.75l-1.182-35.3c-1.242-8.175 2.32-13.839 8.2-13.889 5.594-.048 9.341 5.126 8.729 13.082l-1.646 35.737c-.229 3.043-4.339 5.984-7.128 6.12z" class="cls-8" transform="translate(-640.614 -139)"/>
                            <path id="Path_31" d="M727.353 280.6l-29.4 13.148a6.69 6.69 0 0 1-7.76-3 6.443 6.443 0 0 1 2-7.8l27.789-16.148c3.049-1.993 9.735-1.212 11.838 2.969 2.015 4.002-1.207 9.558-4.467 10.831z" class="cls-8" transform="translate(-632.957 -150.432)"/>
                            <path id="Path_32" d="M733.525 210.1c3.064 1.253 8.779 6.285 8.514 17.774-.144 6.268-1.251 12.476-1.055 20.033-7.506-.3-16.747 2.9-16.747 2.9s-2.22-8.814-3.214-14.373c-2.491-13.934 1.119-30.989 12.502-26.334z" class="cls-9" transform="translate(-639.634 -138.148)"/>
                            <g id="Group_11" transform="translate(36.981 108.712)">
                                <path id="Path_33" fill="#999" d="M669.582 258.274l10.326-.962c.828-.077 1.542.644 1.76 1.777l5.326 27.673c.334 1.737-.613 3.614-1.882 3.733l-10.744 1c-.842.078-1.565-.668-1.77-1.828l-4.908-27.713c-.305-1.726.638-3.563 1.892-3.68z" transform="translate(-665.157 -257.306)"/>
                                <path id="Path_34" fill="#4d4d4d" d="M666.644 258.494l11.378-1.063a1.912 1.912 0 0 1 1.921 1.762l5.6 27.648c.351 1.735-.709 3.624-2.108 3.754l-11.84 1.106c-.928.086-1.716-.653-1.932-1.813l-5.135-27.69c-.323-1.728.735-3.575 2.116-3.704z" transform="translate(-664.468 -257.332)"/>
                            </g>
                            <g id="Group_14" transform="translate(51.173 126.953)">
                                <g id="Group_13">
                                    <g id="Group_12">
                                        <path id="Path_35" d="M695.154 283.5c-1.6-1.069-5.76-3.787-7.267-2.567-.879.713.661 2.885.661 2.885-.422.112-1.46.362-2.464.689-2.074-.245-3.654.786-3.459 1.661.139.627 1.9 1.389 1.9 1.389s-1.857.911-1.86 1.766 1.969 1.422 1.969 1.422-1.6 1.246-1.345 2.077 2.489 1.123 2.489 1.123-1.01 1.727-.664 2.527 4.336.562 4.336.562a15.831 15.831 0 0 0 6.936-.063c1.809-.47 2.917-3.624 2.942-6.873.037-3.698-2.549-5.517-4.174-6.598z" class="cls-8" transform="translate(-682.609 -280.622)"/>
                                    </g>
                                </g>
                            </g>
                        </g>
                    </g>
                </g>
                <g id="Group_18" transform="translate(171.087 119.601)">
                    <path id="Path_36" fill="url(#linear-gradient)" d="M786.466 290.56h-59.448c5.472-27.975 32.215-44.718 42.633-59.81 5.364-7.773 8.552-16.289 7.175-26.906 9.187 9.403 23.7 45.856 9.64 86.716z" transform="translate(-727.018 -203.843)"/>
                    <path id="Path_37" d="M767.069 283.887s.837-14.444-1.161-20.392" class="cls-22" transform="translate(-735.483 -216.828)"/>
                    <path id="Path_38" d="M756.177 291.865c.272-1 .58-1.993.924-2.971v-.018c4.24-12.34 12.394-23.627 19.061-35.223a.254.254 0 0 1 .054-.073c7.682-13.425 13.372-27.287 8.661-43.739" class="cls-22" transform="translate(-733.365 -205.149)"/>
                    <path id="Path_39" d="M757.319 307.752s10.438-9.231 23.323-11.391" class="cls-22" transform="translate(-733.614 -223.982)"/>
                    <path id="Path_40" d="M781.38 264s7.234-7.893 14.555-7.891" class="cls-22" transform="translate(-738.851 -215.219)"/>
                </g>
                <g id="Group_19" transform="translate(206.173 142.135)">
                    <path id="Path_41" fill="url(#linear-gradient)" d="M815.866 296.829h-44c4.05-20.706 23.844-33.1 31.555-44.268 3.97-5.753 6.33-12.056 5.31-19.915 6.8 6.961 17.542 33.943 7.135 64.183z" opacity="0.51" transform="translate(-771.867 -232.647)"/>
                    <path id="Path_42" d="M801.51 291.891s.62-10.69-.859-15.093" class="cls-22" transform="translate(-778.133 -242.258)"/>
                    <path id="Path_43" fill="none" stroke="#fff" stroke-miterlimit="10" stroke-width="0.294px" d="M793.448 297.8c.2-.738.429-1.475.685-2.2v-.013c3.138-9.133 9.173-17.487 14.108-26.07a.177.177 0 0 1 .04-.054c5.687-9.937 9.9-20.2 6.41-32.373" transform="translate(-776.565 -233.613)"/>
                    <path id="Path_44" d="M794.294 309.554s7.725-6.832 17.262-8.431" class="cls-22" transform="translate(-776.749 -247.553)"/>
                    <path id="Path_45" d="M812.1 277.168s5.354-5.842 10.773-5.839" class="cls-22" transform="translate(-780.625 -241.067)"/>
                </g>
            </g>
            <g id="Group_50" opacity="0.64" transform="translate(480 1975.535)">
                <path id="Path_60" fill="url(#linear-gradient)" d="M750.939 216.409v69.33h197.75c4.6-46.422-72.029-22.3-54.662-58.636s-1.511-74.215-23.857-65.828-37.232 27-73.777 27.363-45.454 27.771-45.454 27.771z" opacity="0.39" transform="translate(-750.939 -143.253)"/>
                <path id="Path_61" fill="url(#linear-gradient)" d="M817.381 110.761v124.513h147.526s33.07-16.023 33.776-43.319-15.716-43.041-52.278-44-39.545-52.989-84.284-55.071c-21.993-1.031-36.091 6.425-44.74 17.877z" opacity="0.29" transform="translate(-817.381 -92.789)"/>
                <g id="Group_33" transform="translate(91.101 52.126)">
                    <path id="Path_75" d="M1027.061 199.661l.334 2.7-.334 2.7-.334-2.7z" class="cls-1" transform="translate(-1024.357 -199.661)"/>
                    <path id="Path_76" d="M1015.835 210.887l2.7-.334 2.7.334-2.7.334z" class="cls-1" transform="translate(-1015.835 -208.184)"/>
                </g>
            </g>
        </g>
        <g id="Group_49" transform="translate(973.052 1366.394)">
            <rect id="Rectangle_2873" width="406" height="49" fill="url(#linear-gradient-12)" rx="7" transform="translate(-.052 -.394)"/>
            <text id="_1_lượt_tải_10.000_VNĐ" fill="#fff" font-family="HelveticaNeue-Bold, Helvetica Neue" font-size="30px" font-weight="700" transform="translate(16.948 35.606)">
                <tspan x="0" y="0">1 LƯỢT TẢI = 10.000 VNĐ</tspan>
            </text>
        </g>
        <text id="Sau_khi_chiến_dịch_kết_thúc_tất_cả_số_tiền_quyên_góp_từ_lượt_tải_ứng_dụng_sẽ_được_chuyển_đến_quỹ_ủng_hộ_của_Báo_Thanh_Niên" fill="#f397b9" font-family="HelveticaNeue-Medium, Helvetica Neue" font-size="34px" font-weight="500" transform="translate(595 1519)">
            <tspan x="29.898" y="32">Sau khi chiến dịch kết thúc, tất cả số tiền </tspan><tspan x="34.352" y="74">quyên góp từ lượt tải ứng dụng sẽ được </tspan><tspan x="5.486" y="116">chuyển đến quỹ ủng hộ của Báo Thanh Niên</tspan>
        </text>
        <text id="Ủng_hộ_đồng_bào" fill="#f397b9" font-family="HelveticaNeue-Bold, Helvetica Neue" font-size="42px" font-weight="700" transform="translate(544 1491)">
            <tspan x="0" y="0">ỦNG HỘ ĐỒNG BÀO</tspan>
        </text>
        <text id="miền_trung" fill="#f397b9" font-family="HelveticaNeue-Bold, Helvetica Neue" font-size="63px" font-weight="700" transform="translate(969 1490)">
            <tspan x="0" y="0">MIỀN TRUNG</tspan>
        </text>
        <g id="Group_28" transform="translate(543.537 1366.394)">
            <rect id="Rectangle_2866" width="412" height="73" class="cls-9" rx="7" transform="translate(.463 -.394)"/>
            <text id="tải_ứng_dụng_ngay" fill="#fff" font-family="HelveticaNeue-Medium, Helvetica Neue" font-size="36px" font-weight="500" transform="translate(389.463 49.606)">
                <tspan x="-371.736" y="0">TẢI ỨNG DỤNG NGAY</tspan>
            </text>
        </g>
    </g>
</svg>
